PathFileType	4	(X/Y/Z)	/Users/niels/Desktop/University/Third Semester/Perception and Action/Exam/Gymnastics Motion Tracking/Code for Gym Tracking/Analyzed Data/Webcam_Backflip/id20_2_trajectory_Sports2D/id20_2_trajectory_Sports2D_px_person00.trc
DataRate	CameraRate	NumFrames	NumMarkers	Units	OrigDataRate	OrigDataStartFrame	OrigNumFrames
29.714285714285715	29.714285714285715	7	22	m	29.714285714285715	91	105
Frame#	Time	Hip			RHip			RKnee			RAnkle			RBigToe			RSmallToe			RHeel			LHip			LKnee			LAnkle			LBigToe			LSmallToe			LHeel			Neck			Head			Nose			RShoulder			RElbow			RWrist			LShoulder			LElbow			LWrist		
		X1	Y1	Z1	X2	Y2	Z2	X3	Y3	Z3	X4	Y4	Z4	X5	Y5	Z5	X6	Y6	Z6	X7	Y7	Z7	X8	Y8	Z8	X9	Y9	Z9	X10	Y10	Z10	X11	Y11	Z11	X12	Y12	Z12	X13	Y13	Z13	X14	Y14	Z14	X15	Y15	Z15	X16	Y16	Z16	X17	Y17	Z17	X18	Y18	Z18	X19	Y19	Z19	X20	Y20	Z20	X21	Y21	Z21	X22	Y22	Z22
91	3.0625	1.3132757668260346	-0.7504978616613174	0.0	1.2864265733107452	-0.7561522921640088	0.0	1.274589879303901	-0.9689043320426569	0.0	1.32665392465364	-1.0775257835877008	0.0	1.2795473829980644	-1.0898247570063087	0.0	1.2757857822381895	-1.0767476235576807	0.0	1.3565063973093612	-1.0723431420457497	0.0	1.3367730494018877	-0.7570981905761168	0.0	1.297563616544	-0.9779218967423495	0.0	1.3429456737139742	-1.081869379446412	0.0	1.115779640780034	-1.178902931098759	0.0	1.4259579359771184	-1.117513937727675	0.0	1.3714271802159002	-1.0877005068812768	0.0	1.337608286614721	-0.4360852386457264	0.0	1.3013504849986637	-0.31477470174547867	0.0	1.2791742030167497	-0.38937448515750656	0.0	1.3094086469397714	-0.4831305055947192	0.0	1.2841703281760255	-0.6201281694957222	0.0	1.224335004721423	-0.7158772030236582	0.0	1.3947770075666672	-0.47220873333738916	0.0	1.4053383353792257	-0.6153460772072529	0.0	1.3561797975704122	-0.7231886738698401	0.0
92	3.096153846153846	1.3110479170561364	-0.7539850224022633	0.0	1.2819707263576403	-0.758801427860078	0.0	1.2468593208439684	-0.9641262426909549	0.0	1.3045697744137061	-1.0787439927572027	0.0	1.2595422071510747	-1.0926024937604308	0.0	1.255661040708803	-1.08046491162133	0.0	1.3332458356464894	-1.0747623478799018	0.0	1.335905291646022	-0.761552083715235	0.0	1.2949426388266012	-0.9827373149508446	0.0	1.3388015284262598	-1.0824777943263388	0.0	1.1163266652790174	-1.1788531700994918	0.0	1.4056684827772299	-1.1252039207664248	0.0	1.3606671055842134	-1.0873631184523147	0.0	1.3406193144517378	-0.4396058700032338	0.0	1.3066294424221592	-0.31793721713901446	0.0	1.2796583340222634	-0.3937414920273491	0.0	1.3121311963394966	-0.48618422916398757	0.0	1.2725349300115691	-0.6193004722209402	0.0	1.2017542837380322	-0.6911550116267414	0.0	1.3922804599565037	-0.4771789559764886	0.0	1.3771037288338916	-0.6155845953253077	0.0	1.2990507544458316	-0.6988839218147315	0.0
93	3.129807692307692	1.3091306754865357	-0.7553912959801472	0.0	1.2778148519235735	-0.75906822422509	0.0	1.214010191671928	-0.9482076507991307	0.0	1.2754875769245382	-1.0757421418740734	0.0	1.2315240755120105	-1.092700272019666	0.0	1.228753183096114	-1.0824066204790224	0.0	1.303406911830292	-1.07410520729962	0.0	1.3355525154187433	-0.7637106407799548	0.0	1.2930133562231398	-0.9858794120290428	0.0	1.3364242949418177	-1.0825709527312757	0.0	1.1177639261358305	-1.1787285865805137	0.0	1.3682537599203421	-1.1319718759347512	0.0	1.3456102962869785	-1.0828159203645162	0.0	1.3430982491409278	-0.4427427848055622	0.0	1.3109384305710534	-0.32048487999375747	0.0	1.2803287439331283	-0.3974234744471089	0.0	1.3145429120165508	-0.4883042374101174	0.0	1.2608248825522066	-0.6131738415835933	0.0	1.1785772772111076	-0.6542935062516536	0.0	1.3884564337225513	-0.4800632714199995	0.0	1.345257180693398	-0.6058478300003121	0.0	1.2460535210512593	-0.6567111533903502	0.0
94	3.1634615384615383	1.3070127161955607	-0.7534802445159511	0.0	1.2736693445239962	-0.7558923166702411	0.0	1.1791842989812047	-0.9193375809214394	0.0	1.2388291325091827	-1.06540621179938	0.0	1.1939497332930495	-1.0869586152797395	0.0	1.1939084373168671	-1.0789607415322144	0.0	1.266315091129582	-1.067467383974512	0.0	1.335035513636998	-0.7624747600954337	0.0	1.2916450593410524	-0.9866690071513236	0.0	1.3359045814772272	-1.082429198412364	0.0	1.12041622729854	-1.1785006613922668	0.0	1.3123773878415208	-1.1321329071896573	0.0	1.3241138002760227	-1.0723352721217692	0.0	1.3447712043089008	-0.44483733426667993	0.0	1.3138059472795238	-0.3217618649934469	0.0	1.2808554675011385	-0.3997426360388933	0.0	1.3159323917982026	-0.48877646467802766	0.0	1.2486724463225223	-0.6007454118812775	0.0	1.1569012793207618	-0.608385575936763	0.0	1.384026165369717	-0.47981624710274656	0.0	1.3130266949049196	-0.5847696112268912	0.0	1.202567914798701	-0.6006777615271486	0.0
95	3.1971153846153846	1.3043872255215796	-0.7474642609096972	0.0	1.2693044492535683	-0.748710011804768	0.0	1.1463427880096397	-0.8785671677556952	0.0	1.1949650134421057	-1.0440996748417117	0.0	1.1473020676787622	-1.0706494268737983	0.0	1.1508693165528217	-1.06509092584972	0.0	1.2214768358872528	-1.0510459042589997	0.0	1.3337139877191855	-0.7573075072845734	0.0	1.2905180245319465	-0.9847414857140963	0.0	1.3367597283424324	-1.082300602490307	0.0	1.1242769387423353	-1.1781694378216334	0.0	1.2408212641149627	-1.1172153303291408	0.0	1.2952628471500844	-1.0547784837749514	0.0	1.3453784016451937	-0.4451423392245423	0.0	1.3150163394375656	-0.3212692125641306	0.0	1.2807993620609965	-0.4000179500006107	0.0	1.3153857584538666	-0.48706336286301266	0.0	1.2364831455696703	-0.5817531688771711	0.0	1.1388723228600084	-0.5578980974070818	0.0	1.3798978989232533	-0.47578576524563043	0.0	1.283899146916887	-0.5533122424304545	0.0	1.171929902429348	-0.5370855617782421	0.0
96	3.230769230769231	1.3011456755212536	-0.7373103239592901	0.0	1.2646460881872297	-0.7375665694028598	0.0	1.1190981312552863	-0.829200481176172	0.0	1.145954106007406	-1.0087184903334634	0.0	1.0946686867211424	-1.0390904209799117	0.0	1.1012963523351518	-1.0358946568811962	0.0	1.1699373612113846	-1.0212334697382206	0.0	1.3311063986864866	-0.7485778363869907	0.0	1.289164834204946	-0.979779920616555	0.0	1.3379023441819322	-1.0823439583794574	0.0	1.1287560365810005	-1.1777852358062595	0.0	1.1595731437950265	-1.0799083298025647	0.0	1.2630468077434711	-1.0309408103645332	0.0	1.344724659045288	-0.4428858859218654	0.0	1.3144593862719305	-0.3189120603905705	0.0	1.27971246007096	-0.39785053270088905	0.0	1.3122737091272325	-0.4829335991473587	0.0	1.2254891297424813	-0.5570900266320115	0.0	1.126484327319797	-0.5075926812324164	0.0	1.376689977138538	-0.46790570209248183	0.0	1.2603458485687968	-0.5146544573880744	0.0	1.1546122590056118	-0.4730767685152384	0.0
97	3.2644230769230766	1.2973596479843907	-0.7238671921601177	0.0	1.259815925974093	-0.7231542154856853	0.0	1.0998861652543137	-0.7753151483493048	0.0	1.0958400929964618	-0.9587923521307682	0.0	1.0407614187081065	-0.9906791840525694	0.0	1.0490890598994427	-0.9895442933085997	0.0	1.1152036763892215	-0.976793414442526	0.0	1.3271612697268373	-0.7374846070567473	0.0	1.2871532526721505	-0.9715384205818801	0.0	1.3380719637455973	-1.0826119309542506	0.0	1.132920425005567	-1.1774280005867048	0.0	1.0757859896004454	-1.019819417538935	0.0	1.2390336412878171	-1.005796345800968	0.0	1.3426556629909792	-0.43758076736406715	0.0	1.3120596456285978	-0.3151222270250413	0.0	1.2772758785827272	-0.3933942857148516	0.0	1.3067363262453546	-0.47666385289517743	0.0	1.216780391993956	-0.529259924253379	0.0	1.120897756902824	-0.4615494413449482	0.0	1.3745003920673948	-0.456905349370037	0.0	1.2435579548007312	-0.4736266472827573	0.0	1.1486069977189453	-0.41514932306791097	0.0
